<svg width="36" height="36" viewBox="0 0 36 36" fill="none" xmlns="http://www.w3.org/2000/svg">
<g clip-path="url(#clip0_208_1699)">
<path d="M18.3435 11.7121C15.0003 11.7121 12.3037 14.3666 12.3037 17.6575C12.3037 20.9485 15.0003 23.6029 18.3435 23.6029C21.6866 23.6029 24.3832 20.9485 24.3832 17.6575C24.3832 14.3666 21.6866 11.7121 18.3435 11.7121ZM18.3435 21.5228C16.183 21.5228 14.4168 19.7894 14.4168 17.6575C14.4168 15.5257 16.1778 13.7923 18.3435 13.7923C20.5092 13.7923 22.2701 15.5257 22.2701 17.6575C22.2701 19.7894 20.5039 21.5228 18.3435 21.5228ZM26.0391 11.4689C26.0391 12.2399 25.4083 12.8557 24.6303 12.8557C23.8471 12.8557 23.2216 12.2348 23.2216 11.4689C23.2216 10.7031 23.8523 10.0822 24.6303 10.0822C25.4083 10.0822 26.0391 10.7031 26.0391 11.4689ZM30.0393 12.8764C29.9499 11.0188 29.5189 9.37331 28.1364 8.01762C26.7592 6.66193 25.0876 6.23762 23.2005 6.14449C21.2556 6.03582 15.4261 6.03582 13.4812 6.14449C11.5993 6.23245 9.92777 6.65675 8.5453 8.01245C7.16283 9.36814 6.73705 11.0136 6.64243 12.8712C6.53204 14.7857 6.53204 20.5242 6.64243 22.4387C6.73179 24.2963 7.16283 25.9418 8.5453 27.2975C9.92777 28.6532 11.5941 29.0775 13.4812 29.1706C15.4261 29.2793 21.2556 29.2793 23.2005 29.1706C25.0876 29.0826 26.7592 28.6583 28.1364 27.2975C29.5136 25.9418 29.9447 24.2963 30.0393 22.4387C30.1497 20.5242 30.1497 14.7909 30.0393 12.8764ZM27.5267 24.4929C27.1166 25.5071 26.3229 26.2884 25.2874 26.6972C23.7367 27.3026 20.0571 27.1629 18.3435 27.1629C16.6299 27.1629 12.945 27.2975 11.3996 26.6972C10.3693 26.2936 9.57558 25.5123 9.16031 24.4929C8.5453 22.9665 8.68722 19.3444 8.68722 17.6575C8.68722 15.9707 8.55055 12.3434 9.16031 10.8221C9.57032 9.80796 10.3641 9.02663 11.3996 8.61785C12.9503 8.01245 16.6299 8.15215 18.3435 8.15215C20.0571 8.15215 23.7419 8.01762 25.2874 8.61785C26.3177 9.02145 27.1114 9.80279 27.5267 10.8221C28.1417 12.3486 27.9997 15.9707 27.9997 17.6575C27.9997 19.3444 28.1417 22.9717 27.5267 24.4929Z" fill="#1E1E1E"/>
</g>
<defs>
<clipPath id="clip0_208_1699">
<rect width="23.5493" height="26.493" fill="white" transform="translate(6.56356 4.41602)"/>
</clipPath>
</defs>
</svg>
